<?xml version="1.0" encoding="UTF-8"?>
<svg xmlns="http://www.w3.org/2000/svg" xmlns:xlink="http://www.w3.org/1999/xlink" width="160px" height="160px" viewBox="0 0 160 160" version="1.1">
<g id="surface1">
<path style=" stroke:none;fill-rule:nonzero;fill:rgb(14.509805%,71.764708%,41.568628%);fill-opacity:1;" d="M 10 10.140625 L 43.933594 10.140625 C 50.535156 9.816406 57.132812 10.792969 63.355469 13.015625 C 68.097656 15.230469 72.238281 18.558594 75.421875 22.714844 C 79.453125 27.984375 82.398438 34.007812 84.074219 40.429688 C 86.363281 49.265625 87.417969 58.375 87.214844 67.5 C 87.371094 76.0625 86.257812 84.605469 83.921875 92.84375 C 82.234375 99.007812 79.402344 104.792969 75.570312 109.90625 C 72.320312 114.003906 68.128906 117.253906 63.351562 119.375 C 57.492188 121.695312 51.21875 122.777344 44.925781 122.554688 L 10 122.554688 Z M 28.554688 29.140625 L 28.554688 103.539062 L 42.5 103.539062 C 46.898438 103.773438 51.304688 103.199219 55.5 101.855469 C 58.117188 100.78125 60.394531 99.023438 62.09375 96.761719 C 64.21875 93.492188 65.664062 89.832031 66.351562 85.996094 C 67.613281 79.613281 68.175781 73.117188 68.035156 66.613281 C 68.199219 60.007812 67.621094 53.40625 66.308594 46.929688 C 65.46875 42.769531 63.625 38.878906 60.941406 35.59375 C 58.628906 32.910156 55.539062 31.007812 52.101562 30.15625 C 47.113281 29.304688 42.050781 28.96875 36.996094 29.15625 Z M 28.554688 29.140625 "/>
<path style=" stroke:none;fill-rule:nonzero;fill:rgb(14.901961%,67.058825%,70.980394%);fill-opacity:1;" d="M 47.699219 90.5 C 47.359375 80.644531 49.125 70.828125 52.871094 61.703125 C 55.695312 54.929688 60.375 49.089844 66.371094 44.855469 C 72.410156 41.019531 79.460938 39.082031 86.609375 39.300781 C 97.511719 39.027344 107.90625 43.898438 114.675781 52.445312 C 121.90625 61.210938 125.519531 73.691406 125.519531 89.886719 C 125.519531 106.257812 121.6875 119.050781 114.019531 128.261719 C 107.320312 136.398438 97.191406 140.921875 86.660156 140.476562 C 76.113281 140.949219 65.945312 136.484375 59.160156 128.394531 C 50.980469 117.515625 46.917969 104.089844 47.699219 90.5 Z M 64.386719 89.835938 C 63.746094 98.746094 65.996094 107.628906 70.800781 115.160156 C 74.386719 120.421875 80.335938 123.582031 86.703125 123.601562 C 93.050781 123.617188 98.984375 120.476562 102.546875 115.226562 C 107.304688 107.527344 109.503906 98.523438 108.835938 89.5 C 109.5 80.679688 107.359375 71.871094 102.71875 64.339844 C 99.074219 59.132812 93.074219 56.082031 86.71875 56.199219 C 80.320312 56.097656 74.289062 59.171875 70.609375 64.410156 C 65.890625 72.003906 63.710938 80.902344 64.386719 89.820312 Z M 64.386719 89.835938 "/>
<path style=" stroke:none;fill-rule:nonzero;fill:rgb(14.901961%,67.058825%,70.980394%);fill-opacity:1;" d="M 150 141 L 150 149.863281 L 122.554688 149.863281 C 122.84375 146.539062 123.757812 143.296875 125.253906 140.308594 C 127.691406 136.003906 130.636719 132.011719 134.035156 128.414062 C 136.351562 125.9375 138.476562 123.28125 140.386719 120.476562 C 141.507812 118.644531 142.117188 116.546875 142.148438 114.398438 C 142.277344 112.636719 141.757812 110.886719 140.691406 109.480469 C 139.726562 108.375 138.316406 107.761719 136.851562 107.816406 C 133.386719 107.816406 131.519531 110.410156 131.246094 115.59375 L 123.464844 114.644531 C 123.554688 110.546875 125.046875 106.601562 127.695312 103.46875 C 130.183594 101.035156 133.570312 99.742188 137.050781 99.90625 C 140.761719 99.652344 144.367188 101.207031 146.730469 104.078125 C 148.882812 106.796875 150.039062 110.171875 150 113.640625 C 150.003906 115.644531 149.726562 117.636719 149.171875 119.558594 C 148.566406 121.585938 147.703125 123.523438 146.605469 125.328125 C 144.90625 127.96875 142.972656 130.453125 140.828125 132.746094 C 138.316406 135.570312 136.726562 137.4375 136.058594 138.34375 C 135.4375 139.171875 134.898438 140.058594 134.445312 140.988281 Z M 150 141 "/>
</g>
</svg>
